<svg version="1.0" xmlns="http://www.w3.org/2000/svg" width="50px" height="50px"
    viewBox="70 85 160 130" preserveAspectRatio="xMidYMid meet">
    <g transform="translate(0.000000,300.000000) scale(0.100000,-0.100000)" fill="#fff" stroke="none">
        <path d="M1430 1994 c-62 -39 -178 -79 -260 -88 -30 -4 -68 -9 -83 -12 l-28 -6 1 -171 2 -171 -80 -21 c-127 -34 -180 -88 -154 -157 6 -16 9 -35 6 -43 -6 -15 45 -35 91 -35 18 0 38 -7 46 -16 32 -39 116 -57 160 -34 16 9 32 -1 101 -61 81 -70 211 -154 255 -165 40 -11 203 90 310 189 44 42 54 47 72 38 42 -23 101 -11 147 30 11 11 47 24 80 30 32 6 63 14 68 19 12 12 17 91 7 126 -6 25 -11 28 -42 26 -25 -2 -42 4 -64 23 l-30 25 30 -6 c17 -4 41 -13 53 -21 30 -19 33 -15 19 28 -10 34 -13 35 -56 35 -25 -1 -67 7 -93 17 l-48 19 0 149 c0 169 10 152 -100 163 -76 8 -210 52 -276 92 -31 19 -62 34 -68 33 -6 -1 -36 -16 -66 -35z m164 -53 c81 -39 230 -80 294 -81 22 0 22 -2 22 -125 0 -69 -2 -125 -5 -125 -2 0 -38 11 -80 25 -41 13 -114 29 -162 36 -139 18 -233 0 -379 -74 -42 -21 -91 -38 -125 -42 l-56 -6 -6 38 c-4 21 -7 91 -7 155 l0 117 58 6 c94 11 203 44 277 84 39 21 72 38 75 37 3 -1 45 -21 94 -45z m-13 -333 c-21 -49 -42 -56 -167 -57 -68 -1 -72 0 -76 23 -3 17 0 26 11 30 9 3 41 14 71 25 32 12 80 20 117 21 l62 0 -18 -42z m155 22 c43 -11 82 -24 87 -29 19 -19 -27 -33 -124 -38 -96 -6 -101 -5 -96 13 3 10 9 31 13 47 8 33 16 33 120 7z m-807 -158 c-32 -25 -80 -37 -73 -18 7 17 42 34 73 35 l24 1 -24 -18z m185 -32 c29 -10 56 -57 56 -94 0 -14 -13 -40 -29 -58 -77 -86 -213 10 -157 111 25 44 78 61 130 41z m877 -21 c75 -81 -4 -197 -106 -155 -41 17 -69 70 -59 111 9 38 59 75 101 75 26 0 42 -8 64 -31z m-171 -148 c0 -11 -112 -108 -170 -148 -25 -17 -69 -42 -97 -57 l-53 -26 -52 26 c-87 44 -250 168 -262 200 -4 12 50 14 314 14 177 0 320 -4 320 -9z" />
        <path d="M1017 1418 c-13 -13 -26 -31 -30 -40 -5 -15 0 -18 26 -19 20 -1 24 -3 12 -6 -44 -10 -46 -11 -33 -38 14 -30 24 -32 38 -4 7 11 14 18 17 15 4 -3 -2 -15 -12 -26 -17 -19 -17 -20 6 -28 38 -15 91 7 108 45 15 32 15 31 -21 36 l-33 4 32 1 c26 2 30 5 26 22 -8 29 -51 60 -84 60 -15 0 -39 -10 -52 -22z m93 -103 c20 -24 6 -28 -15 -5 -10 11 -13 20 -8 20 6 0 16 -7 23 -15z" />
        <path d="M1890 1433 c-18 -8 -49 -44 -50 -60 0 -6 12 -14 28 -16 l27 -4 -27 -2 c-30 -1 -38 -27 -16 -49 9 -9 17 -7 36 11 l25 22 -18 -27 c-17 -27 -17 -28 6 -37 22 -7 39 -6 61 6 4 2 0 16 -9 31 l-17 27 25 -22 c24 -22 25 -22 37 -3 19 30 15 38 -20 43 l-33 4 33 1 c40 2 40 15 3 53 -28 28 -57 35 -91 22z" />
    </g>
</svg>
